<?xml version="1.0" encoding="UTF-8" standalone="no"?>
<!-- Created with Inkscape (http://www.inkscape.org/) -->

<svg
   xmlns:dc="http://purl.org/dc/elements/1.1/"
   xmlns:cc="http://creativecommons.org/ns#"
   xmlns:rdf="http://www.w3.org/1999/02/22-rdf-syntax-ns#"
   xmlns:svg="http://www.w3.org/2000/svg"
   xmlns="http://www.w3.org/2000/svg"
   xmlns:sodipodi="http://sodipodi.sourceforge.net/DTD/sodipodi-0.dtd"
   xmlns:inkscape="http://www.inkscape.org/namespaces/inkscape"
   id="svg2"
   version="1.1"
   inkscape:version="0.48.4 r9939"
   width="388.53619"
   height="388.53619"
   xml:space="preserve"
   sodipodi:docname="gas lamp 02.ai"
   inkscape:export-filename="/home/kashev/Dropbox/devel/fallen_london_timer/img/icon128.png"
   inkscape:export-xdpi="29.649748"
   inkscape:export-ydpi="29.649748"><metadata
     id="metadata8"><rdf:RDF><cc:Work
         rdf:about=""><dc:format>image/svg+xml</dc:format><dc:type
           rdf:resource="http://purl.org/dc/dcmitype/StillImage" /><dc:title></dc:title></cc:Work></rdf:RDF></metadata><defs
     id="defs6"><clipPath
       clipPathUnits="userSpaceOnUse"
       id="clipPath54"><path
         d="m 0,2400 2400,0 L 2400,0 0,0 0,2400 z"
         id="path56"
         inkscape:connector-curvature="0" /></clipPath></defs><sodipodi:namedview
     pagecolor="#ffffff"
     bordercolor="#666666"
     borderopacity="1"
     objecttolerance="10"
     gridtolerance="10"
     guidetolerance="10"
     inkscape:pageopacity="0"
     inkscape:pageshadow="2"
     inkscape:window-width="1855"
     inkscape:window-height="1176"
     id="namedview4"
     showgrid="false"
     fit-margin-top="0"
     fit-margin-left="0"
     fit-margin-right="0"
     fit-margin-bottom="0"
     inkscape:zoom="1.2586667"
     inkscape:cx="-75.500797"
     inkscape:cy="211.59317"
     inkscape:window-x="1985"
     inkscape:window-y="24"
     inkscape:window-maximized="1"
     inkscape:current-layer="g10" /><g
     id="g10"
     inkscape:groupmode="layer"
     inkscape:label="gas lamp 02"
     transform="matrix(1.25,0,0,-1.25,-1305.732,1694.268)"><rect
       style="fill:none;stroke:none"
       id="rect3454"
       width="310.82895"
       height="310.82895"
       x="1044.5856"
       y="-1355.4144"
       transform="scale(1,-1)" /><g
       id="g3457"
       transform="translate(320.3659,-410.17015)"><path
         transform="matrix(0.8,0,0,-0.8,0,2400)"
         inkscape:connector-curvature="0"
         id="path3452"
         d="m 1012.1822,943.85593 38.9301,126.32417 95.339,0 38.1356,-125.52968 z"
         style="fill:#ffff00;stroke:#000000;stroke-width:1px;stroke-linecap:butt;stroke-linejoin:miter;stroke-opacity:1" /><g
         transform="translate(909.9229,1704.1563)"
         id="g62"><path
           inkscape:connector-curvature="0"
           id="path64"
           style="fill:#565658;fill-opacity:1;fill-rule:nonzero;stroke:none"
           d="m 0,0 -61.577,0 25,37.169 11.577,0 L 0,0 z" /></g><path
         inkscape:connector-curvature="0"
         id="path80"
         style="fill:#373535;fill-opacity:1;fill-rule:nonzero;stroke:none"
         d="m 911.423,1487.184 -64.577,0 0,-8.169 64.577,0 0,8.169 z" /><path
         inkscape:connector-curvature="0"
         id="path82"
         style="fill:#565658;fill-opacity:1;fill-rule:nonzero;stroke:none"
         d="m 906.423,1487.184 -54.577,0 0,6.169 54.577,0 0,-6.169 z" /><path
         inkscape:connector-curvature="0"
         id="path84"
         style="fill:#373535;fill-opacity:1;fill-rule:nonzero;stroke:none"
         d="m 851.846,1529.69 54.577,0 0,8.169 -54.577,0 0,-8.169 z" /><path
         inkscape:connector-curvature="0"
         id="path86"
         style="fill:#565658;fill-opacity:1;fill-rule:nonzero;stroke:none"
         d="m 856.846,1529.69 44.577,0 0,-6.169 -44.577,0 0,6.169 z" /><path
         inkscape:connector-curvature="0"
         id="path88"
         style="fill:#373535;fill-opacity:1;fill-rule:nonzero;stroke:none"
         d="m 896.423,1493.353 -33.577,0 0,30.169 33.577,0 0,-30.169 z" /><path
         inkscape:connector-curvature="0"
         id="path90"
         style="fill:#373535;fill-opacity:1;fill-rule:nonzero;stroke:none"
         d="m 831.846,1693.987 94.577,0 0,10.169 -94.577,0 0,-10.169 z" /><path
         inkscape:connector-curvature="0"
         id="path92"
         style="fill:#565658;fill-opacity:1;fill-rule:nonzero;stroke:none"
         d="m 916.923,1677.987 -74.577,0 0,16 74.577,0 0,-16 z" /><g
         transform="translate(914.5176,1548.0283)"
         id="g94"><path
           inkscape:connector-curvature="0"
           id="path96"
           style="fill:#373535;fill-opacity:1;fill-rule:nonzero;stroke:none"
           d="m 0,0 -10.019,0 14.387,93.79 24.404,0 L 0,0 z m -30.384,0 0,93.79 24.635,0 L -20.136,0 -30.384,0 z m -10,0 -10.248,0 -14.387,93.79 24.635,0 0,-93.79 z m -30.383,0 -28.773,93.79 24.404,0 L -60.749,0 -70.767,0 z m 113.172,93.79 -40,36.169 -74.577,0 -40,-36.169 2.172,0 28.772,-93.79 -1.444,0 0,-10.169 94.577,0 0,10.169 -1.445,0 28.773,93.79 3.172,0 z" /></g></g></g></svg>